<svg xmlns="http://www.w3.org/2000/svg" viewBox="0 0 100 100" id="map"><path fill="#f7f8f9" d="M10.1 72.2 26 37.9c.3-.6.9-.9 1.6-.9l13.8 1.6h.4l14.5-2.1h.5L72.2 39c.5.1.9.4 1.1.9l16.5 37.6c.5 1.1-.5 2.4-1.7 2.1l-25.9-6.1c-.3-.1-.5-.1-.8 0l-24.9 7.9c-.3.1-.6.1-.9 0l-24.5-7.2c-.9-.2-1.3-1.2-1-2z"></path><path fill="#64bedd" d="m83.3 73.8-21.7-5.1-2.1-11.6-.4-2.1-2.6-13.9 13.4 2.2 7.5 17.1 1.1 2.4z"></path><path fill="#e45647" d="m56.5 41.1-14.8 2.2L36 76.9l25.6-8.1z"></path><path fill="#64bedd" d="m41.7 43.3-3.3 19.3-.3 2.2L36 76.9l-20.2-6 5.5-11.8.8-1.8 7.2-15.4z"></path><path fill="#314d5c" d="M39.2 18.4c-8 0-14.4 6.5-14.4 14.4 0 7.1 11.4 22.8 13.9 26.3.2.3.7.3 1 0 2.5-3.4 13.9-19.2 13.9-26.3 0-7.9-6.5-14.4-14.4-14.4z"></path><circle cx="39.2" cy="32.8" r="8.4" fill="#f7f8f9"></circle><path fill="#f3f3f3" d="m78.5 62.8-19-5.7-.2-.1-21.1 7.8h-.1l-16.8-5.7.8-1.8 16.1 5.4.2-.1L59.1 55l.1-.1 18.2 5.5z"></path><path fill="#f3f3f3" d="m60.2 55.4-2 .4-2.6-14.5.9-.2 1.1.2z"></path></svg>