<svg xmlns="http://www.w3.org/2000/svg" data-name="Layer 1" viewBox="0 0 130 130" id="policeman"><path fill="#569cd6" d="M65,11A59,59,0,0,0,11.93,95.72a4.62,4.62,0,0,1,3.58-1.51,4.53,4.53,0,0,1,4.25,2.51H112.1A4.57,4.57,0,0,1,116,94.86a5,5,0,0,1,2.28.51A59,59,0,0,0,65,11Z"></path><rect width="31.08" height="56.82" x="49.38" y="58.75" fill="#fcd3be"></rect><path fill="#253e4c" d="M82.37,73.06l-1.91-2.54c-6.66,12.63-24.14,13.26-31.08-.11l-1.91,2.65-.31.13-2.69,1.2v9.16s.06,0,.06,0c.71,9.65,6.57,28.57,11.32,42.18H76.28c4.28-11.24,5.7-23.36,8.76-35V74.24l-2.36-1Z"></path><path fill="#253e4c" d="M118.48,95a59,59,0,0,1-106.86.21,24.18,24.18,0,0,1,3-5.07,24.64,24.64,0,0,1,9.83-7.73l21-9.46c0,.24.19,1.84.22,2.07.12,1.13-1.58,2-1.17,3.06,1.23,3.25,3.47,6.31,4.91,9.53a14.79,14.79,0,0,1,1.26,4c.72,4.9,13.16,22.26,14.12,22.3,0,0,13.61-16.88,13.86-24.28a17,17,0,0,1,1.84-6.35c1.48-3.28,3.23-6.5,2.64-9.88l.09,0h0c0-.25-.07-.48-.12-.73l.6.15L84,73l1,.45,21.19,9.22A23.44,23.44,0,0,1,118.48,95Z"></path><path fill="#305166" d="M89.64,85.22,87.8,78a9.68,9.68,0,0,0-4.6-6L80.46,70.5s3.26,4.43-15.54,38.26C45.15,75.71,49.38,70.41,49.38,70.41l-3,1.83a9.6,9.6,0,0,0-4.32,5.82L40.2,85.22v0a2.19,2.19,0,0,0,2.49,2.28l1.41-.29a1.88,1.88,0,0,1,2.27,1.88,12.48,12.48,0,0,1-1.25,4.13v0a2.9,2.9,0,0,0,.82,2.91c3.63,3.53,18.63,18.17,19,18.52.36-.35,15.36-15,19-18.52a2.9,2.9,0,0,0,.82-2.91v0a12.48,12.48,0,0,1-1.25-4.13,1.88,1.88,0,0,1,2.27-1.88l1.41.29a2.19,2.19,0,0,0,2.49-2.28Z"></path><path fill="#f4beae" d="M87.57 35.31c-2-.27-4.15 2.85-4.69 7s.69 7.68 2.75 8 4.15-2.86 4.69-7S89.63 35.57 87.57 35.31zM42.46 35.31c2-.27 4.15 2.85 4.69 7s-.69 7.68-2.75 8-4.15-2.86-4.69-7S40.4 35.57 42.46 35.31z"></path><path fill="#e8c79c" d="M85.85,37.2l-2.28-18L65,13.14,46.46,19.23l-2.29,18s-1,12.91,2.29,22c1.77,5,5.72,9,8.94,11.63a15.23,15.23,0,0,0,19.23,0c3.22-2.63,7.16-6.66,8.94-11.63C86.83,50.11,85.85,37.2,85.85,37.2Z"></path><path fill="#fcd3be" d="M85.85,37.2l-2.28-18L65,13.14,46.46,19.23l-2.29,18s-1,12.91,2.29,22c1.77,5,5.72,9,8.94,11.63a15.23,15.23,0,0,0,19.23,0c3.22-2.63,7.16-6.66,8.94-11.63C86.83,50.11,85.85,37.2,85.85,37.2Z"></path><path fill="#f4beae" d="M83.57,59.21c-1.77,5-5.73,9-8.93,11.62a15.25,15.25,0,0,1-19.25,0,33.17,33.17,0,0,1-6.79-7.37,35.13,35.13,0,0,0,4.73,4.62,15.26,15.26,0,0,0,19.23,0c3.22-2.64,7.16-6.68,8.94-11.64,3.26-9.09,2.28-22,2.28-22l-2-15.8,1.79.59,2.29,18S86.83,50.11,83.57,59.21Z" opacity=".5"></path><path fill="#424c54" d="M87.49 38.63c-1 .35-2 3.67-2 3.67h-2.1a13.88 13.88 0 0 0-1.91-9.51 9.26 9.26 0 0 0 .57-1A11.36 11.36 0 0 0 80.7 19.27s0-.11-.12-.29c-.43-1.18-1.69-5.43 3.51-3 2 .91 3 3.64 3.53 6.92A39.33 39.33 0 0 1 88 27.85 76.42 76.42 0 0 1 87.49 38.63zM49.45 19a2 2 0 0 1-.12.29A11.36 11.36 0 0 0 48 31.8a11.17 11.17 0 0 0 .56 1 14 14 0 0 0-1.9 9.51H44.54s-1-3.32-2-3.67A77.31 77.31 0 0 1 42 27.85a39.33 39.33 0 0 1 .41-4.94c.53-3.28 1.57-6 3.53-6.92C51.16 13.55 49.88 17.8 49.45 19z"></path><path fill="#305166" d="M78.48,4.69c-7-4-19.92-4-26.93,0-6,3.39-10.07,12.39-11.1,25.63a2.71,2.71,0,0,0,2,2.83c11.16,2.77,33.24,2.34,45-.1a2.69,2.69,0,0,0,2.1-2.85C88.53,17,84.47,8.07,78.48,4.69Z"></path><path fill="#253e4c" d="M57.28 4.69c-3.44 3.38-5.78 12.39-6.37 25.63a3 3 0 0 0 1.17 2.83 31.38 31.38 0 0 0 11 1.9c-4.77-.07-9.38-.67-12.57-1.9a2.86 2.86 0 0 1-1.32-2.83c.66-13.24 3.29-22.25 7.15-25.63a13 13 0 0 1 8.07-3A10.85 10.85 0 0 0 57.28 4.69zM80.83 30.21c.06 1.33-.52 2.56-1.36 2.83a51.17 51.17 0 0 1-13.42 2 41 41 0 0 0 11.86-2c.75-.27 1.28-1.5 1.21-2.83C78.51 17 76.18 8.07 72.75 4.69a10.84 10.84 0 0 0-7.13-3 13 13 0 0 1 8.06 3C77.53 8.07 80.14 17 80.83 30.21z"></path><path fill="#305166" d="M88.35,31.48a87,87,0,0,0-46.66,0c-.53.15-.66.38-.51.9.59,2,1,4.38,1.59,6.4a2.61,2.61,0,0,0,3.09,1.8,77.17,77.17,0,0,1,38.31,0,2.61,2.61,0,0,0,3.1-1.8c.58-2,1.11-4.76,1.7-6.78C89.12,31.47,88.88,31.63,88.35,31.48Z"></path><path fill="#253e4c" d="M88.35,30.56a87,87,0,0,0-46.66,0A1,1,0,0,0,41,31.78l1.76,6.08a2.62,2.62,0,0,0,3.09,1.8,77.17,77.17,0,0,1,38.31,0,2.63,2.63,0,0,0,3.1-1.8c.58-2,1.17-4,1.76-6.08A1,1,0,0,0,88.35,30.56Z"></path><path fill="#d9e2e9" d="M85.16,17.13A48.27,48.27,0,0,0,82,10.48C81.07,8.9,79.85,7.22,78,7a7.78,7.78,0,0,0-3.82.88,19.51,19.51,0,0,1-14.28-.26c-1.73-.72-3.43-1.72-5.3-1.7a6.61,6.61,0,0,0-4.27,1.86,14.91,14.91,0,0,0-2.82,3.8C46.35,13.66,45,16,44.7,18.45,44.48,20.12,43.44,23.53,46,24a3.69,3.69,0,0,0,1.64-.22,36.47,36.47,0,0,1,19.9,0c4,1.13,7.85,3,12,2.9,2.38,0,5-.92,6.07-3S86,19.22,85.16,17.13Z" opacity=".1"></path><path fill="#253e4c" d="M65.41,1c-2,0-3.71.49-3.71,1.09s1.66,1.09,3.71,1.09,3.71-.49,3.71-1.09S67.46,1,65.41,1Z"></path><path fill="#e55e5e" d="M69.81,9.25,65.07,8.19,60.33,9.25a1.63,1.63,0,0,1-1.28,1.6v3.67c0,5.55,5.13,7.63,6,7.77.89-.14,6-2.22,6-7.77V10.85A1.63,1.63,0,0,1,69.81,9.25Z"></path><path fill="#424c54" d="M71.25,10.12a.88.88,0,0,1-.69-.87.71.71,0,0,0-.14-.43.74.74,0,0,0-.45-.3L65.23,7.46a.92.92,0,0,0-.33,0l-3.25.73-1.48.33a.75.75,0,0,0-.59.73.89.89,0,0,1-.7.87.75.75,0,0,0-.58.73v3.67a7.09,7.09,0,0,0,0,.81C58.8,20.8,64,22.88,65,23h.24c1-.15,6.12-2.22,6.61-7.66a7.81,7.81,0,0,0,0-.85V10.85A.76.76,0,0,0,71.25,10.12Zm-.91,1.25v3.15c0,.12,0,.24,0,.36-.21,4.54-4.3,6.39-5.26,6.64a7.53,7.53,0,0,1-5.26-6.67c0-.11,0-.22,0-.33V11.37a1.45,1.45,0,0,0,.26-.17A2.29,2.29,0,0,0,61,9.87L65.07,9l4.07.91a2.35,2.35,0,0,0,1,1.35A1.28,1.28,0,0,0,70.34,11.37Z"></path><path fill="#e55e5e" d="M100.07,102.66l-6-1.34-6,1.34a2.07,2.07,0,0,1-1.63,2v4.64c0,7,6.5,9.66,7.63,9.84,1.12-.18,7.62-2.81,7.62-9.84v-4.64A2.07,2.07,0,0,1,100.07,102.66Z"></path><path fill="#305166" d="M101.92,103.71a1.08,1.08,0,0,1-.85-1,1,1,0,0,0-.78-1l-6-1.34a1,1,0,0,0-.43,0l-6,1.34a1,1,0,0,0-.78,1,1.08,1.08,0,0,1-.84,1,1,1,0,0,0-.79,1v4.64c0,7.74,7.16,10.62,8.47,10.83h.31c1.32-.21,8.47-3.09,8.47-10.83v-4.64A1,1,0,0,0,101.92,103.71Zm-7.84,14.43c-1.27-.34-6.63-2.78-6.63-8.82v-3.95A3,3,0,0,0,89,103.48l5.11-1.14,5.1,1.14a3.06,3.06,0,0,0,1.52,1.89v3.95C100.7,115.36,95.35,117.8,94.08,118.14Z"></path><rect width="5.73" height="15.51" x="96.63" y="76.26" fill="#9297ab" rx=".85" transform="rotate(-67.01 99.49 84.016)"></rect><path fill="#84879c" d="M103.86 84.28a1.44 1.44 0 1 0 1.44 1.44A1.43 1.43 0 0 0 103.86 84.28zM95.18 80.78a1.44 1.44 0 1 0 1.44 1.44A1.45 1.45 0 0 0 95.18 80.78z"></path><rect width="15.51" height="5.73" x="23.55" y="81.15" fill="#9297ab" rx=".85" transform="rotate(-22.99 31.304 84.022)"></rect><path fill="#84879c" d="M26.94 84.28a1.44 1.44 0 1 1-1.44 1.44A1.44 1.44 0 0 1 26.94 84.28zM35.62 80.78a1.44 1.44 0 1 1-1.44 1.44A1.45 1.45 0 0 1 35.62 80.78z"></path></svg>